<?xml version="1.0" encoding="UTF-8" standalone="no"?>
<svg xmlns="http://www.w3.org/2000/svg" xmlns:xlink="http://www.w3.org/1999/xlink" contentStyleType="text/css" height="219px" preserveAspectRatio="none" style="width:5945px;height:219px;background:#FFFFFF;" version="1.1" viewBox="0 0 5945 219" width="5945px" zoomAndPan="magnify"><defs/><g><!--MD5=[462cac7d09fccd194e902b793d758fe3]
cluster twisk.ecouteurs--><g id="cluster_twisk.ecouteurs"><path d="M8.5,80 L139.5,80 A3.75,3.75 0 0 1 142,82.5 L149,102.2969 L5744.5,102.2969 A2.5,2.5 0 0 1 5747,104.7969 L5747,209.5 A2.5,2.5 0 0 1 5744.5,212 L8.5,212 A2.5,2.5 0 0 1 6,209.5 L6,82.5 A2.5,2.5 0 0 1 8.5,80 " style="stroke:#000000;stroke-width:1.5;fill:none;"/><line style="stroke:#000000;stroke-width:1.5;fill:none;" x1="6" x2="149" y1="102.2969" y2="102.2969"/><text fill="#000000" font-family="sans-serif" font-size="14" font-weight="bold" lengthAdjust="spacing" textLength="130" x="10" y="94.9951">twisk.ecouteurs</text></g><!--MD5=[28d242ef5b1c1984e69d79ef3eabd467]
class EcouteurArcIg--><g id="elem_EcouteurArcIg"><rect codeLine="10" fill="#00BFFF" height="80.5938" id="EcouteurArcIg" rx="2.5" ry="2.5" style="stroke:#00008B;stroke-width:0.5;" width="332" x="2583" y="115"/><ellipse cx="2694.25" cy="131" fill="#ADD1B2" rx="11" ry="11" style="stroke:#181818;stroke-width:1.0;"/><path d="M2696.5938,126.6719 C2695.6563,126.2344 2695.0625,126.0938 2694.1875,126.0938 C2691.5625,126.0938 2689.5625,128.1719 2689.5625,130.8906 L2689.5625,132.0156 C2689.5625,134.5938 2691.6719,136.4844 2694.5625,136.4844 C2695.7813,136.4844 2696.9375,136.1875 2697.6875,135.6406 C2698.2656,135.2344 2698.5938,134.7813 2698.5938,134.3906 C2698.5938,133.9375 2698.2031,133.5469 2697.7344,133.5469 C2697.5156,133.5469 2697.3125,133.625 2697.125,133.8125 C2696.6719,134.2969 2696.6719,134.2969 2696.4844,134.3906 C2696.0625,134.6563 2695.375,134.7813 2694.6094,134.7813 C2692.5625,134.7813 2691.2656,133.6875 2691.2656,131.9844 L2691.2656,130.8906 C2691.2656,129.1094 2692.5156,127.7969 2694.25,127.7969 C2694.8281,127.7969 2695.4375,127.9531 2695.9063,128.2031 C2696.3906,128.4844 2696.5625,128.7031 2696.6563,129.1094 C2696.7188,129.5156 2696.75,129.6406 2696.8906,129.7656 C2697.0313,129.9063 2697.2656,130.0156 2697.4844,130.0156 C2697.75,130.0156 2698.0156,129.875 2698.1875,129.6563 C2698.2969,129.5 2698.3281,129.3125 2698.3281,128.8906 L2698.3281,127.4688 C2698.3281,127.0313 2698.3125,126.9063 2698.2188,126.75 C2698.0625,126.4844 2697.7813,126.3438 2697.4844,126.3438 C2697.1875,126.3438 2696.9844,126.4375 2696.7656,126.75 L2696.5938,126.6719 Z " fill="#000000"/><text fill="#000000" font-family="sans-serif" font-size="14" lengthAdjust="spacing" textLength="101" x="2714.75" y="135.8467">EcouteurArcIg</text><line style="stroke:#00008B;stroke-width:0.5;" x1="2584" x2="2914" y1="147" y2="147"/><line style="stroke:#00008B;stroke-width:0.5;" x1="2584" x2="2914" y1="155" y2="155"/><text fill="#000000" font-family="sans-serif" font-size="14" lengthAdjust="spacing" textLength="320" x="2589" y="171.9951">EcouteurArcIg(MondeIG monde , ArcIG arcIG)</text><text fill="#000000" font-family="sans-serif" font-size="14" lengthAdjust="spacing" textLength="270" x="2589" y="188.292">void handle(MouseEvent MouseEvent)</text></g><!--MD5=[60ddd1ea94f7acf668f90fddc5e5cd8a]
class EcouteurBouton--><g id="elem_EcouteurBouton"><rect codeLine="15" fill="#00BFFF" height="80.5938" id="EcouteurBouton" rx="2.5" ry="2.5" style="stroke:#00008B;stroke-width:0.5;" width="341" x="2206.5" y="115"/><ellipse cx="2314.75" cy="131" fill="#ADD1B2" rx="11" ry="11" style="stroke:#181818;stroke-width:1.0;"/><path d="M2317.0938,126.6719 C2316.1563,126.2344 2315.5625,126.0938 2314.6875,126.0938 C2312.0625,126.0938 2310.0625,128.1719 2310.0625,130.8906 L2310.0625,132.0156 C2310.0625,134.5938 2312.1719,136.4844 2315.0625,136.4844 C2316.2813,136.4844 2317.4375,136.1875 2318.1875,135.6406 C2318.7656,135.2344 2319.0938,134.7813 2319.0938,134.3906 C2319.0938,133.9375 2318.7031,133.5469 2318.2344,133.5469 C2318.0156,133.5469 2317.8125,133.625 2317.625,133.8125 C2317.1719,134.2969 2317.1719,134.2969 2316.9844,134.3906 C2316.5625,134.6563 2315.875,134.7813 2315.1094,134.7813 C2313.0625,134.7813 2311.7656,133.6875 2311.7656,131.9844 L2311.7656,130.8906 C2311.7656,129.1094 2313.0156,127.7969 2314.75,127.7969 C2315.3281,127.7969 2315.9375,127.9531 2316.4063,128.2031 C2316.8906,128.4844 2317.0625,128.7031 2317.1563,129.1094 C2317.2188,129.5156 2317.25,129.6406 2317.3906,129.7656 C2317.5313,129.9063 2317.7656,130.0156 2317.9844,130.0156 C2318.25,130.0156 2318.5156,129.875 2318.6875,129.6563 C2318.7969,129.5 2318.8281,129.3125 2318.8281,128.8906 L2318.8281,127.4688 C2318.8281,127.0313 2318.8125,126.9063 2318.7188,126.75 C2318.5625,126.4844 2318.2813,126.3438 2317.9844,126.3438 C2317.6875,126.3438 2317.4844,126.4375 2317.2656,126.75 L2317.0938,126.6719 Z " fill="#000000"/><text fill="#000000" font-family="sans-serif" font-size="14" lengthAdjust="spacing" textLength="116" x="2335.25" y="135.8467">EcouteurBouton</text><line style="stroke:#00008B;stroke-width:0.5;" x1="2207.5" x2="2546.5" y1="147" y2="147"/><line style="stroke:#00008B;stroke-width:0.5;" x1="2207.5" x2="2546.5" y1="155" y2="155"/><text fill="#000000" font-family="sans-serif" font-size="14" lengthAdjust="spacing" textLength="329" x="2212.5" y="171.9951">EcouteurBouton(MondeIG monde,String type)</text><text fill="#000000" font-family="sans-serif" font-size="14" lengthAdjust="spacing" textLength="272" x="2212.5" y="188.292">void handle(ActionEvent actionEvent)</text></g><!--MD5=[cf25cf26e0a91cd20fff2848cd8e342a]
class EcouteurDesselectionner--><g id="elem_EcouteurDesselectionner"><rect codeLine="21" fill="#00BFFF" height="80.5938" id="EcouteurDesselectionner" rx="2.5" ry="2.5" style="stroke:#00008B;stroke-width:0.5;" width="324" x="1847" y="115"/><ellipse cx="1914.25" cy="131" fill="#ADD1B2" rx="11" ry="11" style="stroke:#181818;stroke-width:1.0;"/><path d="M1916.5938,126.6719 C1915.6563,126.2344 1915.0625,126.0938 1914.1875,126.0938 C1911.5625,126.0938 1909.5625,128.1719 1909.5625,130.8906 L1909.5625,132.0156 C1909.5625,134.5938 1911.6719,136.4844 1914.5625,136.4844 C1915.7813,136.4844 1916.9375,136.1875 1917.6875,135.6406 C1918.2656,135.2344 1918.5938,134.7813 1918.5938,134.3906 C1918.5938,133.9375 1918.2031,133.5469 1917.7344,133.5469 C1917.5156,133.5469 1917.3125,133.625 1917.125,133.8125 C1916.6719,134.2969 1916.6719,134.2969 1916.4844,134.3906 C1916.0625,134.6563 1915.375,134.7813 1914.6094,134.7813 C1912.5625,134.7813 1911.2656,133.6875 1911.2656,131.9844 L1911.2656,130.8906 C1911.2656,129.1094 1912.5156,127.7969 1914.25,127.7969 C1914.8281,127.7969 1915.4375,127.9531 1915.9063,128.2031 C1916.3906,128.4844 1916.5625,128.7031 1916.6563,129.1094 C1916.7188,129.5156 1916.75,129.6406 1916.8906,129.7656 C1917.0313,129.9063 1917.2656,130.0156 1917.4844,130.0156 C1917.75,130.0156 1918.0156,129.875 1918.1875,129.6563 C1918.2969,129.5 1918.3281,129.3125 1918.3281,128.8906 L1918.3281,127.4688 C1918.3281,127.0313 1918.3125,126.9063 1918.2188,126.75 C1918.0625,126.4844 1917.7813,126.3438 1917.4844,126.3438 C1917.1875,126.3438 1916.9844,126.4375 1916.7656,126.75 L1916.5938,126.6719 Z " fill="#000000"/><text fill="#000000" font-family="sans-serif" font-size="14" lengthAdjust="spacing" textLength="181" x="1934.75" y="135.8467">EcouteurDesselectionner</text><line style="stroke:#00008B;stroke-width:0.5;" x1="1848" x2="2170" y1="147" y2="147"/><line style="stroke:#00008B;stroke-width:0.5;" x1="1848" x2="2170" y1="155" y2="155"/><text fill="#000000" font-family="sans-serif" font-size="14" lengthAdjust="spacing" textLength="312" x="1853" y="171.9951">EcouteurDesselectionner(MondeIG  monde)</text><text fill="#000000" font-family="sans-serif" font-size="14" lengthAdjust="spacing" textLength="272" x="1853" y="188.292">void handle(ActionEvent actionEvent)</text></g><!--MD5=[d0e56cc231d4effff9a68724117e1d70]
class EcouteurDragDepart--><g id="elem_EcouteurDragDepart"><rect codeLine="26" fill="#00BFFF" height="80.5938" id="EcouteurDragDepart" rx="2.5" ry="2.5" style="stroke:#00008B;stroke-width:0.5;" width="284" x="1528" y="115"/><ellipse cx="1591.25" cy="131" fill="#ADD1B2" rx="11" ry="11" style="stroke:#181818;stroke-width:1.0;"/><path d="M1593.5938,126.6719 C1592.6563,126.2344 1592.0625,126.0938 1591.1875,126.0938 C1588.5625,126.0938 1586.5625,128.1719 1586.5625,130.8906 L1586.5625,132.0156 C1586.5625,134.5938 1588.6719,136.4844 1591.5625,136.4844 C1592.7813,136.4844 1593.9375,136.1875 1594.6875,135.6406 C1595.2656,135.2344 1595.5938,134.7813 1595.5938,134.3906 C1595.5938,133.9375 1595.2031,133.5469 1594.7344,133.5469 C1594.5156,133.5469 1594.3125,133.625 1594.125,133.8125 C1593.6719,134.2969 1593.6719,134.2969 1593.4844,134.3906 C1593.0625,134.6563 1592.375,134.7813 1591.6094,134.7813 C1589.5625,134.7813 1588.2656,133.6875 1588.2656,131.9844 L1588.2656,130.8906 C1588.2656,129.1094 1589.5156,127.7969 1591.25,127.7969 C1591.8281,127.7969 1592.4375,127.9531 1592.9063,128.2031 C1593.3906,128.4844 1593.5625,128.7031 1593.6563,129.1094 C1593.7188,129.5156 1593.75,129.6406 1593.8906,129.7656 C1594.0313,129.9063 1594.2656,130.0156 1594.4844,130.0156 C1594.75,130.0156 1595.0156,129.875 1595.1875,129.6563 C1595.2969,129.5 1595.3281,129.3125 1595.3281,128.8906 L1595.3281,127.4688 C1595.3281,127.0313 1595.3125,126.9063 1595.2188,126.75 C1595.0625,126.4844 1594.7813,126.3438 1594.4844,126.3438 C1594.1875,126.3438 1593.9844,126.4375 1593.7656,126.75 L1593.5938,126.6719 Z " fill="#000000"/><text fill="#000000" font-family="sans-serif" font-size="14" lengthAdjust="spacing" textLength="149" x="1611.75" y="135.8467">EcouteurDragDepart</text><line style="stroke:#00008B;stroke-width:0.5;" x1="1529" x2="1811" y1="147" y2="147"/><line style="stroke:#00008B;stroke-width:0.5;" x1="1529" x2="1811" y1="155" y2="155"/><text fill="#000000" font-family="sans-serif" font-size="14" lengthAdjust="spacing" textLength="257" x="1534" y="171.9951">EcouteurDragDepart(VueEtapeIG e)</text><text fill="#000000" font-family="sans-serif" font-size="14" lengthAdjust="spacing" textLength="272" x="1534" y="188.292">void handle(ActionEvent actionEvent)</text></g><!--MD5=[c6d74b256916c8a55993bd2bdeaa5c33]
class EcouteurDragDessin--><g id="elem_EcouteurDragDessin"><rect codeLine="30" fill="#00BFFF" height="80.5938" id="EcouteurDragDessin" rx="2.5" ry="2.5" style="stroke:#00008B;stroke-width:0.5;" width="463" x="1029.5" y="115"/><ellipse cx="1184.25" cy="131" fill="#ADD1B2" rx="11" ry="11" style="stroke:#181818;stroke-width:1.0;"/><path d="M1186.5938,126.6719 C1185.6563,126.2344 1185.0625,126.0938 1184.1875,126.0938 C1181.5625,126.0938 1179.5625,128.1719 1179.5625,130.8906 L1179.5625,132.0156 C1179.5625,134.5938 1181.6719,136.4844 1184.5625,136.4844 C1185.7813,136.4844 1186.9375,136.1875 1187.6875,135.6406 C1188.2656,135.2344 1188.5938,134.7813 1188.5938,134.3906 C1188.5938,133.9375 1188.2031,133.5469 1187.7344,133.5469 C1187.5156,133.5469 1187.3125,133.625 1187.125,133.8125 C1186.6719,134.2969 1186.6719,134.2969 1186.4844,134.3906 C1186.0625,134.6563 1185.375,134.7813 1184.6094,134.7813 C1182.5625,134.7813 1181.2656,133.6875 1181.2656,131.9844 L1181.2656,130.8906 C1181.2656,129.1094 1182.5156,127.7969 1184.25,127.7969 C1184.8281,127.7969 1185.4375,127.9531 1185.9063,128.2031 C1186.3906,128.4844 1186.5625,128.7031 1186.6563,129.1094 C1186.7188,129.5156 1186.75,129.6406 1186.8906,129.7656 C1187.0313,129.9063 1187.2656,130.0156 1187.4844,130.0156 C1187.75,130.0156 1188.0156,129.875 1188.1875,129.6563 C1188.2969,129.5 1188.3281,129.3125 1188.3281,128.8906 L1188.3281,127.4688 C1188.3281,127.0313 1188.3125,126.9063 1188.2188,126.75 C1188.0625,126.4844 1187.7813,126.3438 1187.4844,126.3438 C1187.1875,126.3438 1186.9844,126.4375 1186.7656,126.75 L1186.5938,126.6719 Z " fill="#000000"/><text fill="#000000" font-family="sans-serif" font-size="14" lengthAdjust="spacing" textLength="145" x="1204.75" y="135.8467">EcouteurDragDessin</text><line style="stroke:#00008B;stroke-width:0.5;" x1="1030.5" x2="1491.5" y1="147" y2="147"/><line style="stroke:#00008B;stroke-width:0.5;" x1="1030.5" x2="1491.5" y1="155" y2="155"/><text fill="#000000" font-family="sans-serif" font-size="14" lengthAdjust="spacing" textLength="451" x="1035.5" y="171.9951">public EcouteurDragDessin(MondeIG monde , VueMondeIG vue)</text><text fill="#000000" font-family="sans-serif" font-size="14" lengthAdjust="spacing" textLength="272" x="1035.5" y="188.292">void handle(ActionEvent actionEvent)</text></g><!--MD5=[980603a905b720315ad3dd76f4d589ff]
class EcouteurDragOver--><g id="elem_EcouteurDragOver"><rect codeLine="35" fill="#00BFFF" height="64.2969" id="EcouteurDragOver" rx="2.5" ry="2.5" style="stroke:#00008B;stroke-width:0.5;" width="233" x="347.5" y="123.5"/><ellipse cx="393.75" cy="139.5" fill="#ADD1B2" rx="11" ry="11" style="stroke:#181818;stroke-width:1.0;"/><path d="M396.0938,135.1719 C395.1563,134.7344 394.5625,134.5938 393.6875,134.5938 C391.0625,134.5938 389.0625,136.6719 389.0625,139.3906 L389.0625,140.5156 C389.0625,143.0938 391.1719,144.9844 394.0625,144.9844 C395.2813,144.9844 396.4375,144.6875 397.1875,144.1406 C397.7656,143.7344 398.0938,143.2813 398.0938,142.8906 C398.0938,142.4375 397.7031,142.0469 397.2344,142.0469 C397.0156,142.0469 396.8125,142.125 396.625,142.3125 C396.1719,142.7969 396.1719,142.7969 395.9844,142.8906 C395.5625,143.1563 394.875,143.2813 394.1094,143.2813 C392.0625,143.2813 390.7656,142.1875 390.7656,140.4844 L390.7656,139.3906 C390.7656,137.6094 392.0156,136.2969 393.75,136.2969 C394.3281,136.2969 394.9375,136.4531 395.4063,136.7031 C395.8906,136.9844 396.0625,137.2031 396.1563,137.6094 C396.2188,138.0156 396.25,138.1406 396.3906,138.2656 C396.5313,138.4063 396.7656,138.5156 396.9844,138.5156 C397.25,138.5156 397.5156,138.375 397.6875,138.1563 C397.7969,138 397.8281,137.8125 397.8281,137.3906 L397.8281,135.9688 C397.8281,135.5313 397.8125,135.4063 397.7188,135.25 C397.5625,134.9844 397.2813,134.8438 396.9844,134.8438 C396.6875,134.8438 396.4844,134.9375 396.2656,135.25 L396.0938,135.1719 Z " fill="#000000"/><text fill="#000000" font-family="sans-serif" font-size="14" lengthAdjust="spacing" textLength="132" x="414.25" y="144.3467">EcouteurDragOver</text><line style="stroke:#00008B;stroke-width:0.5;" x1="348.5" x2="579.5" y1="155.5" y2="155.5"/><line style="stroke:#00008B;stroke-width:0.5;" x1="348.5" x2="579.5" y1="163.5" y2="163.5"/><text fill="#000000" font-family="sans-serif" font-size="14" lengthAdjust="spacing" textLength="221" x="353.5" y="180.4951">void handle(DragEvent dragev)</text></g><!--MD5=[1d77505acd0bf7455abd4e97abc35058]
class EcouteurEcartTemps--><g id="elem_EcouteurEcartTemps"><rect codeLine="38" fill="#00BFFF" height="80.5938" id="EcouteurEcartTemps" rx="2.5" ry="2.5" style="stroke:#00008B;stroke-width:0.5;" width="290" x="22" y="115"/><ellipse cx="87.25" cy="131" fill="#ADD1B2" rx="11" ry="11" style="stroke:#181818;stroke-width:1.0;"/><path d="M89.5938,126.6719 C88.6563,126.2344 88.0625,126.0938 87.1875,126.0938 C84.5625,126.0938 82.5625,128.1719 82.5625,130.8906 L82.5625,132.0156 C82.5625,134.5938 84.6719,136.4844 87.5625,136.4844 C88.7813,136.4844 89.9375,136.1875 90.6875,135.6406 C91.2656,135.2344 91.5938,134.7813 91.5938,134.3906 C91.5938,133.9375 91.2031,133.5469 90.7344,133.5469 C90.5156,133.5469 90.3125,133.625 90.125,133.8125 C89.6719,134.2969 89.6719,134.2969 89.4844,134.3906 C89.0625,134.6563 88.375,134.7813 87.6094,134.7813 C85.5625,134.7813 84.2656,133.6875 84.2656,131.9844 L84.2656,130.8906 C84.2656,129.1094 85.5156,127.7969 87.25,127.7969 C87.8281,127.7969 88.4375,127.9531 88.9063,128.2031 C89.3906,128.4844 89.5625,128.7031 89.6563,129.1094 C89.7188,129.5156 89.75,129.6406 89.8906,129.7656 C90.0313,129.9063 90.2656,130.0156 90.4844,130.0156 C90.75,130.0156 91.0156,129.875 91.1875,129.6563 C91.2969,129.5 91.3281,129.3125 91.3281,128.8906 L91.3281,127.4688 C91.3281,127.0313 91.3125,126.9063 91.2188,126.75 C91.0625,126.4844 90.7813,126.3438 90.4844,126.3438 C90.1875,126.3438 89.9844,126.4375 89.7656,126.75 L89.5938,126.6719 Z " fill="#000000"/><text fill="#000000" font-family="sans-serif" font-size="14" lengthAdjust="spacing" textLength="151" x="107.75" y="135.8467">EcouteurEcartTemps</text><line style="stroke:#00008B;stroke-width:0.5;" x1="23" x2="311" y1="147" y2="147"/><line style="stroke:#00008B;stroke-width:0.5;" x1="23" x2="311" y1="155" y2="155"/><text fill="#000000" font-family="sans-serif" font-size="14" lengthAdjust="spacing" textLength="278" x="28" y="171.9951">EcouteurEcartTemps(MondeIG monde)</text><text fill="#000000" font-family="sans-serif" font-size="14" lengthAdjust="spacing" textLength="272" x="28" y="188.292">void handle(ActionEvent actionEvent)</text></g><!--MD5=[b88e60d09287e1a58d8884572433c15e]
class EcouteurEntree--><g id="elem_EcouteurEntree"><rect codeLine="42" fill="#00BFFF" height="80.5938" id="EcouteurEntree" rx="2.5" ry="2.5" style="stroke:#00008B;stroke-width:0.5;" width="284" x="3588" y="115"/><ellipse cx="3669.25" cy="131" fill="#ADD1B2" rx="11" ry="11" style="stroke:#181818;stroke-width:1.0;"/><path d="M3671.5938,126.6719 C3670.6563,126.2344 3670.0625,126.0938 3669.1875,126.0938 C3666.5625,126.0938 3664.5625,128.1719 3664.5625,130.8906 L3664.5625,132.0156 C3664.5625,134.5938 3666.6719,136.4844 3669.5625,136.4844 C3670.7813,136.4844 3671.9375,136.1875 3672.6875,135.6406 C3673.2656,135.2344 3673.5938,134.7813 3673.5938,134.3906 C3673.5938,133.9375 3673.2031,133.5469 3672.7344,133.5469 C3672.5156,133.5469 3672.3125,133.625 3672.125,133.8125 C3671.6719,134.2969 3671.6719,134.2969 3671.4844,134.3906 C3671.0625,134.6563 3670.375,134.7813 3669.6094,134.7813 C3667.5625,134.7813 3666.2656,133.6875 3666.2656,131.9844 L3666.2656,130.8906 C3666.2656,129.1094 3667.5156,127.7969 3669.25,127.7969 C3669.8281,127.7969 3670.4375,127.9531 3670.9063,128.2031 C3671.3906,128.4844 3671.5625,128.7031 3671.6563,129.1094 C3671.7188,129.5156 3671.75,129.6406 3671.8906,129.7656 C3672.0313,129.9063 3672.2656,130.0156 3672.4844,130.0156 C3672.75,130.0156 3673.0156,129.875 3673.1875,129.6563 C3673.2969,129.5 3673.3281,129.3125 3673.3281,128.8906 L3673.3281,127.4688 C3673.3281,127.0313 3673.3125,126.9063 3673.2188,126.75 C3673.0625,126.4844 3672.7813,126.3438 3672.4844,126.3438 C3672.1875,126.3438 3671.9844,126.4375 3671.7656,126.75 L3671.5938,126.6719 Z " fill="#000000"/><text fill="#000000" font-family="sans-serif" font-size="14" lengthAdjust="spacing" textLength="113" x="3689.75" y="135.8467">EcouteurEntree</text><line style="stroke:#00008B;stroke-width:0.5;" x1="3589" x2="3871" y1="147" y2="147"/><line style="stroke:#00008B;stroke-width:0.5;" x1="3589" x2="3871" y1="155" y2="155"/><text fill="#000000" font-family="sans-serif" font-size="14" lengthAdjust="spacing" textLength="240" x="3594" y="171.9951">EcouteurEntree(MondeIG monde)</text><text fill="#000000" font-family="sans-serif" font-size="14" lengthAdjust="spacing" textLength="272" x="3594" y="188.292">void handle(ActionEvent actionEvent)</text></g><!--MD5=[f595642db75e6f3c31adc130b57ad7d1]
class EcouteurQuitter--><g id="elem_EcouteurQuitter"><rect codeLine="46" fill="#00BFFF" height="80.5938" id="EcouteurQuitter" rx="2.5" ry="2.5" style="stroke:#00008B;stroke-width:0.5;" width="284" x="2950" y="115"/><ellipse cx="3029.75" cy="131" fill="#ADD1B2" rx="11" ry="11" style="stroke:#181818;stroke-width:1.0;"/><path d="M3032.0938,126.6719 C3031.1563,126.2344 3030.5625,126.0938 3029.6875,126.0938 C3027.0625,126.0938 3025.0625,128.1719 3025.0625,130.8906 L3025.0625,132.0156 C3025.0625,134.5938 3027.1719,136.4844 3030.0625,136.4844 C3031.2813,136.4844 3032.4375,136.1875 3033.1875,135.6406 C3033.7656,135.2344 3034.0938,134.7813 3034.0938,134.3906 C3034.0938,133.9375 3033.7031,133.5469 3033.2344,133.5469 C3033.0156,133.5469 3032.8125,133.625 3032.625,133.8125 C3032.1719,134.2969 3032.1719,134.2969 3031.9844,134.3906 C3031.5625,134.6563 3030.875,134.7813 3030.1094,134.7813 C3028.0625,134.7813 3026.7656,133.6875 3026.7656,131.9844 L3026.7656,130.8906 C3026.7656,129.1094 3028.0156,127.7969 3029.75,127.7969 C3030.3281,127.7969 3030.9375,127.9531 3031.4063,128.2031 C3031.8906,128.4844 3032.0625,128.7031 3032.1563,129.1094 C3032.2188,129.5156 3032.25,129.6406 3032.3906,129.7656 C3032.5313,129.9063 3032.7656,130.0156 3032.9844,130.0156 C3033.25,130.0156 3033.5156,129.875 3033.6875,129.6563 C3033.7969,129.5 3033.8281,129.3125 3033.8281,128.8906 L3033.8281,127.4688 C3033.8281,127.0313 3033.8125,126.9063 3033.7188,126.75 C3033.5625,126.4844 3033.2813,126.3438 3032.9844,126.3438 C3032.6875,126.3438 3032.4844,126.4375 3032.2656,126.75 L3032.0938,126.6719 Z " fill="#000000"/><text fill="#000000" font-family="sans-serif" font-size="14" lengthAdjust="spacing" textLength="116" x="3050.25" y="135.8467">EcouteurQuitter</text><line style="stroke:#00008B;stroke-width:0.5;" x1="2951" x2="3233" y1="147" y2="147"/><line style="stroke:#00008B;stroke-width:0.5;" x1="2951" x2="3233" y1="155" y2="155"/><text fill="#000000" font-family="sans-serif" font-size="14" lengthAdjust="spacing" textLength="126" x="2956" y="171.9951">EcouteurQuitter()</text><text fill="#000000" font-family="sans-serif" font-size="14" lengthAdjust="spacing" textLength="272" x="2956" y="188.292">void handle(ActionEvent actionEvent)</text></g><!--MD5=[728e3108a8c33e949857eddd71633ee3]
class EcouteurRenommer--><g id="elem_EcouteurRenommer"><rect codeLine="50" fill="#00BFFF" height="80.5938" id="EcouteurRenommer" rx="2.5" ry="2.5" style="stroke:#00008B;stroke-width:0.5;" width="284" x="3269" y="115"/><ellipse cx="3334.75" cy="131" fill="#ADD1B2" rx="11" ry="11" style="stroke:#181818;stroke-width:1.0;"/><path d="M3337.0938,126.6719 C3336.1563,126.2344 3335.5625,126.0938 3334.6875,126.0938 C3332.0625,126.0938 3330.0625,128.1719 3330.0625,130.8906 L3330.0625,132.0156 C3330.0625,134.5938 3332.1719,136.4844 3335.0625,136.4844 C3336.2813,136.4844 3337.4375,136.1875 3338.1875,135.6406 C3338.7656,135.2344 3339.0938,134.7813 3339.0938,134.3906 C3339.0938,133.9375 3338.7031,133.5469 3338.2344,133.5469 C3338.0156,133.5469 3337.8125,133.625 3337.625,133.8125 C3337.1719,134.2969 3337.1719,134.2969 3336.9844,134.3906 C3336.5625,134.6563 3335.875,134.7813 3335.1094,134.7813 C3333.0625,134.7813 3331.7656,133.6875 3331.7656,131.9844 L3331.7656,130.8906 C3331.7656,129.1094 3333.0156,127.7969 3334.75,127.7969 C3335.3281,127.7969 3335.9375,127.9531 3336.4063,128.2031 C3336.8906,128.4844 3337.0625,128.7031 3337.1563,129.1094 C3337.2188,129.5156 3337.25,129.6406 3337.3906,129.7656 C3337.5313,129.9063 3337.7656,130.0156 3337.9844,130.0156 C3338.25,130.0156 3338.5156,129.875 3338.6875,129.6563 C3338.7969,129.5 3338.8281,129.3125 3338.8281,128.8906 L3338.8281,127.4688 C3338.8281,127.0313 3338.8125,126.9063 3338.7188,126.75 C3338.5625,126.4844 3338.2813,126.3438 3337.9844,126.3438 C3337.6875,126.3438 3337.4844,126.4375 3337.2656,126.75 L3337.0938,126.6719 Z " fill="#000000"/><text fill="#000000" font-family="sans-serif" font-size="14" lengthAdjust="spacing" textLength="144" x="3355.25" y="135.8467">EcouteurRenommer</text><line style="stroke:#00008B;stroke-width:0.5;" x1="3270" x2="3552" y1="147" y2="147"/><line style="stroke:#00008B;stroke-width:0.5;" x1="3270" x2="3552" y1="155" y2="155"/><text fill="#000000" font-family="sans-serif" font-size="14" lengthAdjust="spacing" textLength="271" x="3275" y="171.9951">EcouteurRenommer(MondeIG monde)</text><text fill="#000000" font-family="sans-serif" font-size="14" lengthAdjust="spacing" textLength="272" x="3275" y="188.292">void handle(ActionEvent actionEvent)</text></g><!--MD5=[3052329d15f25143e55ab2434c76e018]
class EcouteurSelectArc--><g id="elem_EcouteurSelectArc"><rect codeLine="54" fill="#00BFFF" height="80.5938" id="EcouteurSelectArc" rx="2.5" ry="2.5" style="stroke:#00008B;stroke-width:0.5;" width="336" x="4864" y="115"/><ellipse cx="4960.75" cy="131" fill="#ADD1B2" rx="11" ry="11" style="stroke:#181818;stroke-width:1.0;"/><path d="M4963.0938,126.6719 C4962.1563,126.2344 4961.5625,126.0938 4960.6875,126.0938 C4958.0625,126.0938 4956.0625,128.1719 4956.0625,130.8906 L4956.0625,132.0156 C4956.0625,134.5938 4958.1719,136.4844 4961.0625,136.4844 C4962.2813,136.4844 4963.4375,136.1875 4964.1875,135.6406 C4964.7656,135.2344 4965.0938,134.7813 4965.0938,134.3906 C4965.0938,133.9375 4964.7031,133.5469 4964.2344,133.5469 C4964.0156,133.5469 4963.8125,133.625 4963.625,133.8125 C4963.1719,134.2969 4963.1719,134.2969 4962.9844,134.3906 C4962.5625,134.6563 4961.875,134.7813 4961.1094,134.7813 C4959.0625,134.7813 4957.7656,133.6875 4957.7656,131.9844 L4957.7656,130.8906 C4957.7656,129.1094 4959.0156,127.7969 4960.75,127.7969 C4961.3281,127.7969 4961.9375,127.9531 4962.4063,128.2031 C4962.8906,128.4844 4963.0625,128.7031 4963.1563,129.1094 C4963.2188,129.5156 4963.25,129.6406 4963.3906,129.7656 C4963.5313,129.9063 4963.7656,130.0156 4963.9844,130.0156 C4964.25,130.0156 4964.5156,129.875 4964.6875,129.6563 C4964.7969,129.5 4964.8281,129.3125 4964.8281,128.8906 L4964.8281,127.4688 C4964.8281,127.0313 4964.8125,126.9063 4964.7188,126.75 C4964.5625,126.4844 4964.2813,126.3438 4963.9844,126.3438 C4963.6875,126.3438 4963.4844,126.4375 4963.2656,126.75 L4963.0938,126.6719 Z " fill="#000000"/><text fill="#000000" font-family="sans-serif" font-size="14" lengthAdjust="spacing" textLength="134" x="4981.25" y="135.8467">EcouteurSelectArc</text><line style="stroke:#00008B;stroke-width:0.5;" x1="4865" x2="5199" y1="147" y2="147"/><line style="stroke:#00008B;stroke-width:0.5;" x1="4865" x2="5199" y1="155" y2="155"/><text fill="#000000" font-family="sans-serif" font-size="14" lengthAdjust="spacing" textLength="324" x="4870" y="171.9951">EcouteurSelectArc(VueArcIG vue,MondeIG m)</text><text fill="#000000" font-family="sans-serif" font-size="14" lengthAdjust="spacing" textLength="272" x="4870" y="188.292">void handle(MouseEvent mouseevent)</text></g><!--MD5=[313516be05fbd9bf882b3f42ca9df997]
class EcouteurSelectEtape--><g id="elem_EcouteurSelectEtape"><rect codeLine="58" fill="#00BFFF" height="80.5938" id="EcouteurSelectEtape" rx="2.5" ry="2.5" style="stroke:#00008B;stroke-width:0.5;" width="378" x="616" y="115"/><ellipse cx="724.25" cy="131" fill="#ADD1B2" rx="11" ry="11" style="stroke:#181818;stroke-width:1.0;"/><path d="M726.5938,126.6719 C725.6563,126.2344 725.0625,126.0938 724.1875,126.0938 C721.5625,126.0938 719.5625,128.1719 719.5625,130.8906 L719.5625,132.0156 C719.5625,134.5938 721.6719,136.4844 724.5625,136.4844 C725.7813,136.4844 726.9375,136.1875 727.6875,135.6406 C728.2656,135.2344 728.5938,134.7813 728.5938,134.3906 C728.5938,133.9375 728.2031,133.5469 727.7344,133.5469 C727.5156,133.5469 727.3125,133.625 727.125,133.8125 C726.6719,134.2969 726.6719,134.2969 726.4844,134.3906 C726.0625,134.6563 725.375,134.7813 724.6094,134.7813 C722.5625,134.7813 721.2656,133.6875 721.2656,131.9844 L721.2656,130.8906 C721.2656,129.1094 722.5156,127.7969 724.25,127.7969 C724.8281,127.7969 725.4375,127.9531 725.9063,128.2031 C726.3906,128.4844 726.5625,128.7031 726.6563,129.1094 C726.7188,129.5156 726.75,129.6406 726.8906,129.7656 C727.0313,129.9063 727.2656,130.0156 727.4844,130.0156 C727.75,130.0156 728.0156,129.875 728.1875,129.6563 C728.2969,129.5 728.3281,129.3125 728.3281,128.8906 L728.3281,127.4688 C728.3281,127.0313 728.3125,126.9063 728.2188,126.75 C728.0625,126.4844 727.7813,126.3438 727.4844,126.3438 C727.1875,126.3438 726.9844,126.4375 726.7656,126.75 L726.5938,126.6719 Z " fill="#000000"/><text fill="#000000" font-family="sans-serif" font-size="14" lengthAdjust="spacing" textLength="153" x="744.75" y="135.8467">EcouteurSelectEtape</text><line style="stroke:#00008B;stroke-width:0.5;" x1="617" x2="993" y1="147" y2="147"/><line style="stroke:#00008B;stroke-width:0.5;" x1="617" x2="993" y1="155" y2="155"/><text fill="#000000" font-family="sans-serif" font-size="14" lengthAdjust="spacing" textLength="366" x="622" y="171.9951">EcouteurSelectEtape(VueEtapeIG vue, MondeIG m)</text><text fill="#000000" font-family="sans-serif" font-size="14" lengthAdjust="spacing" textLength="272" x="622" y="188.292">void handle(MouseEvent mouseevent)</text></g><!--MD5=[cbb597b505db8fafe4d4e709f01ae85b]
class EcouteurSortie--><g id="elem_EcouteurSortie"><rect codeLine="63" fill="#00BFFF" height="80.5938" id="EcouteurSortie" rx="2.5" ry="2.5" style="stroke:#00008B;stroke-width:0.5;" width="284" x="4545" y="115"/><ellipse cx="4628.75" cy="131" fill="#ADD1B2" rx="11" ry="11" style="stroke:#181818;stroke-width:1.0;"/><path d="M4631.0938,126.6719 C4630.1563,126.2344 4629.5625,126.0938 4628.6875,126.0938 C4626.0625,126.0938 4624.0625,128.1719 4624.0625,130.8906 L4624.0625,132.0156 C4624.0625,134.5938 4626.1719,136.4844 4629.0625,136.4844 C4630.2813,136.4844 4631.4375,136.1875 4632.1875,135.6406 C4632.7656,135.2344 4633.0938,134.7813 4633.0938,134.3906 C4633.0938,133.9375 4632.7031,133.5469 4632.2344,133.5469 C4632.0156,133.5469 4631.8125,133.625 4631.625,133.8125 C4631.1719,134.2969 4631.1719,134.2969 4630.9844,134.3906 C4630.5625,134.6563 4629.875,134.7813 4629.1094,134.7813 C4627.0625,134.7813 4625.7656,133.6875 4625.7656,131.9844 L4625.7656,130.8906 C4625.7656,129.1094 4627.0156,127.7969 4628.75,127.7969 C4629.3281,127.7969 4629.9375,127.9531 4630.4063,128.2031 C4630.8906,128.4844 4631.0625,128.7031 4631.1563,129.1094 C4631.2188,129.5156 4631.25,129.6406 4631.3906,129.7656 C4631.5313,129.9063 4631.7656,130.0156 4631.9844,130.0156 C4632.25,130.0156 4632.5156,129.875 4632.6875,129.6563 C4632.7969,129.5 4632.8281,129.3125 4632.8281,128.8906 L4632.8281,127.4688 C4632.8281,127.0313 4632.8125,126.9063 4632.7188,126.75 C4632.5625,126.4844 4632.2813,126.3438 4631.9844,126.3438 C4631.6875,126.3438 4631.4844,126.4375 4631.2656,126.75 L4631.0938,126.6719 Z " fill="#000000"/><text fill="#000000" font-family="sans-serif" font-size="14" lengthAdjust="spacing" textLength="108" x="4649.25" y="135.8467">EcouteurSortie</text><line style="stroke:#00008B;stroke-width:0.5;" x1="4546" x2="4828" y1="147" y2="147"/><line style="stroke:#00008B;stroke-width:0.5;" x1="4546" x2="4828" y1="155" y2="155"/><text fill="#000000" font-family="sans-serif" font-size="14" lengthAdjust="spacing" textLength="235" x="4551" y="171.9951">EcouteurSortie(MondeIG monde)</text><text fill="#000000" font-family="sans-serif" font-size="14" lengthAdjust="spacing" textLength="272" x="4551" y="188.292">void handle(ActionEvent actionEvent)</text></g><!--MD5=[3cb760a7d3072a41d33966fda8d60050]
class EcouteurSupprimer--><g id="elem_EcouteurSupprimer"><rect codeLine="68" fill="#00BFFF" height="80.5938" id="EcouteurSupprimer" rx="2.5" ry="2.5" style="stroke:#00008B;stroke-width:0.5;" width="284" x="4226" y="115"/><ellipse cx="4293.75" cy="131" fill="#ADD1B2" rx="11" ry="11" style="stroke:#181818;stroke-width:1.0;"/><path d="M4296.0938,126.6719 C4295.1563,126.2344 4294.5625,126.0938 4293.6875,126.0938 C4291.0625,126.0938 4289.0625,128.1719 4289.0625,130.8906 L4289.0625,132.0156 C4289.0625,134.5938 4291.1719,136.4844 4294.0625,136.4844 C4295.2813,136.4844 4296.4375,136.1875 4297.1875,135.6406 C4297.7656,135.2344 4298.0938,134.7813 4298.0938,134.3906 C4298.0938,133.9375 4297.7031,133.5469 4297.2344,133.5469 C4297.0156,133.5469 4296.8125,133.625 4296.625,133.8125 C4296.1719,134.2969 4296.1719,134.2969 4295.9844,134.3906 C4295.5625,134.6563 4294.875,134.7813 4294.1094,134.7813 C4292.0625,134.7813 4290.7656,133.6875 4290.7656,131.9844 L4290.7656,130.8906 C4290.7656,129.1094 4292.0156,127.7969 4293.75,127.7969 C4294.3281,127.7969 4294.9375,127.9531 4295.4063,128.2031 C4295.8906,128.4844 4296.0625,128.7031 4296.1563,129.1094 C4296.2188,129.5156 4296.25,129.6406 4296.3906,129.7656 C4296.5313,129.9063 4296.7656,130.0156 4296.9844,130.0156 C4297.25,130.0156 4297.5156,129.875 4297.6875,129.6563 C4297.7969,129.5 4297.8281,129.3125 4297.8281,128.8906 L4297.8281,127.4688 C4297.8281,127.0313 4297.8125,126.9063 4297.7188,126.75 C4297.5625,126.4844 4297.2813,126.3438 4296.9844,126.3438 C4296.6875,126.3438 4296.4844,126.4375 4296.2656,126.75 L4296.0938,126.6719 Z " fill="#000000"/><text fill="#000000" font-family="sans-serif" font-size="14" lengthAdjust="spacing" textLength="140" x="4314.25" y="135.8467">EcouteurSupprimer</text><line style="stroke:#00008B;stroke-width:0.5;" x1="4227" x2="4509" y1="147" y2="147"/><line style="stroke:#00008B;stroke-width:0.5;" x1="4227" x2="4509" y1="155" y2="155"/><text fill="#000000" font-family="sans-serif" font-size="14" lengthAdjust="spacing" textLength="267" x="4232" y="171.9951">EcouteurSupprimer(MondeIG monde)</text><text fill="#000000" font-family="sans-serif" font-size="14" lengthAdjust="spacing" textLength="272" x="4232" y="188.292">void handle(ActionEvent actionEvent)</text></g><!--MD5=[e997ee2dafd7f2b06484d9f1929287b4]
class EcouteurTemps--><g id="elem_EcouteurTemps"><rect codeLine="73" fill="#00BFFF" height="80.5938" id="EcouteurTemps" rx="2.5" ry="2.5" style="stroke:#00008B;stroke-width:0.5;" width="284" x="3907" y="115"/><ellipse cx="3988.25" cy="131" fill="#ADD1B2" rx="11" ry="11" style="stroke:#181818;stroke-width:1.0;"/><path d="M3990.5938,126.6719 C3989.6563,126.2344 3989.0625,126.0938 3988.1875,126.0938 C3985.5625,126.0938 3983.5625,128.1719 3983.5625,130.8906 L3983.5625,132.0156 C3983.5625,134.5938 3985.6719,136.4844 3988.5625,136.4844 C3989.7813,136.4844 3990.9375,136.1875 3991.6875,135.6406 C3992.2656,135.2344 3992.5938,134.7813 3992.5938,134.3906 C3992.5938,133.9375 3992.2031,133.5469 3991.7344,133.5469 C3991.5156,133.5469 3991.3125,133.625 3991.125,133.8125 C3990.6719,134.2969 3990.6719,134.2969 3990.4844,134.3906 C3990.0625,134.6563 3989.375,134.7813 3988.6094,134.7813 C3986.5625,134.7813 3985.2656,133.6875 3985.2656,131.9844 L3985.2656,130.8906 C3985.2656,129.1094 3986.5156,127.7969 3988.25,127.7969 C3988.8281,127.7969 3989.4375,127.9531 3989.9063,128.2031 C3990.3906,128.4844 3990.5625,128.7031 3990.6563,129.1094 C3990.7188,129.5156 3990.75,129.6406 3990.8906,129.7656 C3991.0313,129.9063 3991.2656,130.0156 3991.4844,130.0156 C3991.75,130.0156 3992.0156,129.875 3992.1875,129.6563 C3992.2969,129.5 3992.3281,129.3125 3992.3281,128.8906 L3992.3281,127.4688 C3992.3281,127.0313 3992.3125,126.9063 3992.2188,126.75 C3992.0625,126.4844 3991.7813,126.3438 3991.4844,126.3438 C3991.1875,126.3438 3990.9844,126.4375 3990.7656,126.75 L3990.5938,126.6719 Z " fill="#000000"/><text fill="#000000" font-family="sans-serif" font-size="14" lengthAdjust="spacing" textLength="113" x="4008.75" y="135.8467">EcouteurTemps</text><line style="stroke:#00008B;stroke-width:0.5;" x1="3908" x2="4190" y1="147" y2="147"/><line style="stroke:#00008B;stroke-width:0.5;" x1="3908" x2="4190" y1="155" y2="155"/><text fill="#000000" font-family="sans-serif" font-size="14" lengthAdjust="spacing" textLength="240" x="3913" y="171.9951">EcouteurTemps(MondeIG monde)</text><text fill="#000000" font-family="sans-serif" font-size="14" lengthAdjust="spacing" textLength="272" x="3913" y="188.292">void handle(ActionEvent actionEvent)</text></g><!--MD5=[833cbb54eafc4f2388885e67dff28f0e]
class EcouteurVuePointDeControles--><g id="elem_EcouteurVuePointDeControles"><rect codeLine="77" fill="#00BFFF" height="80.5938" id="EcouteurVuePointDeControles" rx="2.5" ry="2.5" style="stroke:#00008B;stroke-width:0.5;" width="496" x="5235" y="115"/><ellipse cx="5369.25" cy="131" fill="#ADD1B2" rx="11" ry="11" style="stroke:#181818;stroke-width:1.0;"/><path d="M5371.5938,126.6719 C5370.6563,126.2344 5370.0625,126.0938 5369.1875,126.0938 C5366.5625,126.0938 5364.5625,128.1719 5364.5625,130.8906 L5364.5625,132.0156 C5364.5625,134.5938 5366.6719,136.4844 5369.5625,136.4844 C5370.7813,136.4844 5371.9375,136.1875 5372.6875,135.6406 C5373.2656,135.2344 5373.5938,134.7813 5373.5938,134.3906 C5373.5938,133.9375 5373.2031,133.5469 5372.7344,133.5469 C5372.5156,133.5469 5372.3125,133.625 5372.125,133.8125 C5371.6719,134.2969 5371.6719,134.2969 5371.4844,134.3906 C5371.0625,134.6563 5370.375,134.7813 5369.6094,134.7813 C5367.5625,134.7813 5366.2656,133.6875 5366.2656,131.9844 L5366.2656,130.8906 C5366.2656,129.1094 5367.5156,127.7969 5369.25,127.7969 C5369.8281,127.7969 5370.4375,127.9531 5370.9063,128.2031 C5371.3906,128.4844 5371.5625,128.7031 5371.6563,129.1094 C5371.7188,129.5156 5371.75,129.6406 5371.8906,129.7656 C5372.0313,129.9063 5372.2656,130.0156 5372.4844,130.0156 C5372.75,130.0156 5373.0156,129.875 5373.1875,129.6563 C5373.2969,129.5 5373.3281,129.3125 5373.3281,128.8906 L5373.3281,127.4688 C5373.3281,127.0313 5373.3125,126.9063 5373.2188,126.75 C5373.0625,126.4844 5372.7813,126.3438 5372.4844,126.3438 C5372.1875,126.3438 5371.9844,126.4375 5371.7656,126.75 L5371.5938,126.6719 Z " fill="#000000"/><text fill="#000000" font-family="sans-serif" font-size="14" lengthAdjust="spacing" textLength="219" x="5389.75" y="135.8467">EcouteurVuePointDeControles</text><line style="stroke:#00008B;stroke-width:0.5;" x1="5236" x2="5730" y1="147" y2="147"/><line style="stroke:#00008B;stroke-width:0.5;" x1="5236" x2="5730" y1="155" y2="155"/><text fill="#000000" font-family="sans-serif" font-size="14" lengthAdjust="spacing" textLength="484" x="5241" y="171.9951">EcouteurVuePointDeControles(MondeIG md, PointDeControleIG pt)</text><text fill="#000000" font-family="sans-serif" font-size="14" lengthAdjust="spacing" textLength="283" x="5241" y="188.292">void handle(MouseEvent mousesnvent )</text></g><!--MD5=[a7713aadf40296b0144520a50cdaec15]
class EventHandler--><g id="elem_EventHandler"><rect codeLine="8" fill="#00BFFF" height="48" id="EventHandler" rx="2.5" ry="2.5" style="stroke:#00008B;stroke-width:0.5;" width="129" x="2855.5" y="7"/><ellipse cx="2870.5" cy="23" fill="#B4A7E5" rx="11" ry="11" style="stroke:#181818;stroke-width:1.0;"/><path d="M2871.4531,19.7813 L2873.1719,19.7813 C2873.5625,19.7813 2873.75,19.75 2873.875,19.6719 C2874.1406,19.5156 2874.2813,19.2344 2874.2813,18.9375 C2874.2813,18.6719 2874.1719,18.4063 2873.9375,18.2344 C2873.7656,18.125 2873.625,18.0938 2873.1719,18.0938 L2868.0313,18.0938 C2867.5938,18.0938 2867.4688,18.1094 2867.3125,18.2031 C2867.0625,18.3594 2866.9063,18.6563 2866.9063,18.9375 C2866.9063,19.2188 2867.0469,19.4688 2867.2656,19.6406 C2867.4219,19.75 2867.6094,19.7813 2868.0313,19.7813 L2869.75,19.7813 L2869.75,26.2969 L2868.0313,26.2969 C2867.5938,26.2969 2867.4688,26.3125 2867.3125,26.4219 C2867.0625,26.5781 2866.9063,26.8594 2866.9063,27.1563 C2866.9063,27.4063 2867.0469,27.6719 2867.2656,27.8281 C2867.4219,27.9531 2867.625,28 2868.0313,28 L2873.1719,28 C2873.9219,28 2874.2813,27.7188 2874.2813,27.1563 C2874.2813,26.875 2874.1719,26.625 2873.9375,26.4531 C2873.7656,26.3281 2873.625,26.2969 2873.1719,26.2969 L2871.4531,26.2969 L2871.4531,19.7813 Z " fill="#000000"/><text fill="#000000" font-family="sans-serif" font-size="14" font-style="italic" lengthAdjust="spacing" textLength="97" x="2884.5" y="27.8467">EventHandler</text><line style="stroke:#00008B;stroke-width:0.5;" x1="2856.5" x2="2983.5" y1="39" y2="39"/><line style="stroke:#00008B;stroke-width:0.5;" x1="2856.5" x2="2983.5" y1="47" y2="47"/></g><!--MD5=[413a9db650d6731bb8a07fb08ab3684d]
class MondeIG--><g id="elem_MondeIG"><rect fill="#00BFFF" height="48" id="MondeIG" rx="2.5" ry="2.5" style="stroke:#00008B;stroke-width:0.5;" width="95" x="4320.5" y="7"/><ellipse cx="4335.5" cy="23" fill="#ADD1B2" rx="11" ry="11" style="stroke:#181818;stroke-width:1.0;"/><path d="M4337.8438,18.6719 C4336.9063,18.2344 4336.3125,18.0938 4335.4375,18.0938 C4332.8125,18.0938 4330.8125,20.1719 4330.8125,22.8906 L4330.8125,24.0156 C4330.8125,26.5938 4332.9219,28.4844 4335.8125,28.4844 C4337.0313,28.4844 4338.1875,28.1875 4338.9375,27.6406 C4339.5156,27.2344 4339.8438,26.7813 4339.8438,26.3906 C4339.8438,25.9375 4339.4531,25.5469 4338.9844,25.5469 C4338.7656,25.5469 4338.5625,25.625 4338.375,25.8125 C4337.9219,26.2969 4337.9219,26.2969 4337.7344,26.3906 C4337.3125,26.6563 4336.625,26.7813 4335.8594,26.7813 C4333.8125,26.7813 4332.5156,25.6875 4332.5156,23.9844 L4332.5156,22.8906 C4332.5156,21.1094 4333.7656,19.7969 4335.5,19.7969 C4336.0781,19.7969 4336.6875,19.9531 4337.1563,20.2031 C4337.6406,20.4844 4337.8125,20.7031 4337.9063,21.1094 C4337.9688,21.5156 4338,21.6406 4338.1406,21.7656 C4338.2813,21.9063 4338.5156,22.0156 4338.7344,22.0156 C4339,22.0156 4339.2656,21.875 4339.4375,21.6563 C4339.5469,21.5 4339.5781,21.3125 4339.5781,20.8906 L4339.5781,19.4688 C4339.5781,19.0313 4339.5625,18.9063 4339.4688,18.75 C4339.3125,18.4844 4339.0313,18.3438 4338.7344,18.3438 C4338.4375,18.3438 4338.2344,18.4375 4338.0156,18.75 L4337.8438,18.6719 Z " fill="#000000"/><text fill="#000000" font-family="sans-serif" font-size="14" lengthAdjust="spacing" textLength="63" x="4349.5" y="27.8467">MondeIG</text><line style="stroke:#00008B;stroke-width:0.5;" x1="4321.5" x2="4414.5" y1="39" y2="39"/><line style="stroke:#00008B;stroke-width:0.5;" x1="4321.5" x2="4414.5" y1="47" y2="47"/></g><!--MD5=[b90b796de58bc64c29e580e060d034c5]
class PointDeControleIG--><g id="elem_PointDeControleIG"><rect fill="#00BFFF" height="48" id="PointDeControleIG" rx="2.5" ry="2.5" style="stroke:#00008B;stroke-width:0.5;" width="168" x="5399" y="7"/><ellipse cx="5414" cy="23" fill="#ADD1B2" rx="11" ry="11" style="stroke:#181818;stroke-width:1.0;"/><path d="M5416.3438,18.6719 C5415.4063,18.2344 5414.8125,18.0938 5413.9375,18.0938 C5411.3125,18.0938 5409.3125,20.1719 5409.3125,22.8906 L5409.3125,24.0156 C5409.3125,26.5938 5411.4219,28.4844 5414.3125,28.4844 C5415.5313,28.4844 5416.6875,28.1875 5417.4375,27.6406 C5418.0156,27.2344 5418.3438,26.7813 5418.3438,26.3906 C5418.3438,25.9375 5417.9531,25.5469 5417.4844,25.5469 C5417.2656,25.5469 5417.0625,25.625 5416.875,25.8125 C5416.4219,26.2969 5416.4219,26.2969 5416.2344,26.3906 C5415.8125,26.6563 5415.125,26.7813 5414.3594,26.7813 C5412.3125,26.7813 5411.0156,25.6875 5411.0156,23.9844 L5411.0156,22.8906 C5411.0156,21.1094 5412.2656,19.7969 5414,19.7969 C5414.5781,19.7969 5415.1875,19.9531 5415.6563,20.2031 C5416.1406,20.4844 5416.3125,20.7031 5416.4063,21.1094 C5416.4688,21.5156 5416.5,21.6406 5416.6406,21.7656 C5416.7813,21.9063 5417.0156,22.0156 5417.2344,22.0156 C5417.5,22.0156 5417.7656,21.875 5417.9375,21.6563 C5418.0469,21.5 5418.0781,21.3125 5418.0781,20.8906 L5418.0781,19.4688 C5418.0781,19.0313 5418.0625,18.9063 5417.9688,18.75 C5417.8125,18.4844 5417.5313,18.3438 5417.2344,18.3438 C5416.9375,18.3438 5416.7344,18.4375 5416.5156,18.75 L5416.3438,18.6719 Z " fill="#000000"/><text fill="#000000" font-family="sans-serif" font-size="14" lengthAdjust="spacing" textLength="136" x="5428" y="27.8467">PointDeControleIG</text><line style="stroke:#00008B;stroke-width:0.5;" x1="5400" x2="5566" y1="39" y2="39"/><line style="stroke:#00008B;stroke-width:0.5;" x1="5400" x2="5566" y1="47" y2="47"/></g><!--MD5=[65b49847831217ddbe9081cbf72ac78d]
class EcouteurSimulation--><g id="elem_EcouteurSimulation"><rect fill="#00BFFF" height="48" id="EcouteurSimulation" rx="2.5" ry="2.5" style="stroke:#00008B;stroke-width:0.5;" width="172" x="5766" y="131.5"/><ellipse cx="5781" cy="147.5" fill="#ADD1B2" rx="11" ry="11" style="stroke:#181818;stroke-width:1.0;"/><path d="M5783.3438,143.1719 C5782.4063,142.7344 5781.8125,142.5938 5780.9375,142.5938 C5778.3125,142.5938 5776.3125,144.6719 5776.3125,147.3906 L5776.3125,148.5156 C5776.3125,151.0938 5778.4219,152.9844 5781.3125,152.9844 C5782.5313,152.9844 5783.6875,152.6875 5784.4375,152.1406 C5785.0156,151.7344 5785.3438,151.2813 5785.3438,150.8906 C5785.3438,150.4375 5784.9531,150.0469 5784.4844,150.0469 C5784.2656,150.0469 5784.0625,150.125 5783.875,150.3125 C5783.4219,150.7969 5783.4219,150.7969 5783.2344,150.8906 C5782.8125,151.1563 5782.125,151.2813 5781.3594,151.2813 C5779.3125,151.2813 5778.0156,150.1875 5778.0156,148.4844 L5778.0156,147.3906 C5778.0156,145.6094 5779.2656,144.2969 5781,144.2969 C5781.5781,144.2969 5782.1875,144.4531 5782.6563,144.7031 C5783.1406,144.9844 5783.3125,145.2031 5783.4063,145.6094 C5783.4688,146.0156 5783.5,146.1406 5783.6406,146.2656 C5783.7813,146.4063 5784.0156,146.5156 5784.2344,146.5156 C5784.5,146.5156 5784.7656,146.375 5784.9375,146.1563 C5785.0469,146 5785.0781,145.8125 5785.0781,145.3906 L5785.0781,143.9688 C5785.0781,143.5313 5785.0625,143.4063 5784.9688,143.25 C5784.8125,142.9844 5784.5313,142.8438 5784.2344,142.8438 C5783.9375,142.8438 5783.7344,142.9375 5783.5156,143.25 L5783.3438,143.1719 Z " fill="#000000"/><text fill="#000000" font-family="sans-serif" font-size="14" lengthAdjust="spacing" textLength="140" x="5795" y="152.3467">EcouteurSimulation</text><line style="stroke:#00008B;stroke-width:0.5;" x1="5767" x2="5937" y1="163.5" y2="163.5"/><line style="stroke:#00008B;stroke-width:0.5;" x1="5767" x2="5937" y1="171.5" y2="171.5"/></g><!--MD5=[5110cb209bb303be2d5460b38f7a03e6]
class VueEtapeIG--><g id="elem_VueEtapeIG"><rect fill="#00BFFF" height="48" id="VueEtapeIG" rx="2.5" ry="2.5" style="stroke:#00008B;stroke-width:0.5;" width="117" x="746.5" y="7"/><ellipse cx="761.5" cy="23" fill="#ADD1B2" rx="11" ry="11" style="stroke:#181818;stroke-width:1.0;"/><path d="M763.8438,18.6719 C762.9063,18.2344 762.3125,18.0938 761.4375,18.0938 C758.8125,18.0938 756.8125,20.1719 756.8125,22.8906 L756.8125,24.0156 C756.8125,26.5938 758.9219,28.4844 761.8125,28.4844 C763.0313,28.4844 764.1875,28.1875 764.9375,27.6406 C765.5156,27.2344 765.8438,26.7813 765.8438,26.3906 C765.8438,25.9375 765.4531,25.5469 764.9844,25.5469 C764.7656,25.5469 764.5625,25.625 764.375,25.8125 C763.9219,26.2969 763.9219,26.2969 763.7344,26.3906 C763.3125,26.6563 762.625,26.7813 761.8594,26.7813 C759.8125,26.7813 758.5156,25.6875 758.5156,23.9844 L758.5156,22.8906 C758.5156,21.1094 759.7656,19.7969 761.5,19.7969 C762.0781,19.7969 762.6875,19.9531 763.1563,20.2031 C763.6406,20.4844 763.8125,20.7031 763.9063,21.1094 C763.9688,21.5156 764,21.6406 764.1406,21.7656 C764.2813,21.9063 764.5156,22.0156 764.7344,22.0156 C765,22.0156 765.2656,21.875 765.4375,21.6563 C765.5469,21.5 765.5781,21.3125 765.5781,20.8906 L765.5781,19.4688 C765.5781,19.0313 765.5625,18.9063 765.4688,18.75 C765.3125,18.4844 765.0313,18.3438 764.7344,18.3438 C764.4375,18.3438 764.2344,18.4375 764.0156,18.75 L763.8438,18.6719 Z " fill="#000000"/><text fill="#000000" font-family="sans-serif" font-size="14" lengthAdjust="spacing" textLength="85" x="775.5" y="27.8467">VueEtapeIG</text><line style="stroke:#00008B;stroke-width:0.5;" x1="747.5" x2="862.5" y1="39" y2="39"/><line style="stroke:#00008B;stroke-width:0.5;" x1="747.5" x2="862.5" y1="47" y2="47"/></g><!--MD5=[496aebe3f35e8c25c85b3b94c04115eb]
class VueArcIG--><g id="elem_VueArcIG"><rect fill="#00BFFF" height="48" id="VueArcIG" rx="2.5" ry="2.5" style="stroke:#00008B;stroke-width:0.5;" width="98" x="4983" y="7"/><ellipse cx="4998" cy="23" fill="#ADD1B2" rx="11" ry="11" style="stroke:#181818;stroke-width:1.0;"/><path d="M5000.3438,18.6719 C4999.4063,18.2344 4998.8125,18.0938 4997.9375,18.0938 C4995.3125,18.0938 4993.3125,20.1719 4993.3125,22.8906 L4993.3125,24.0156 C4993.3125,26.5938 4995.4219,28.4844 4998.3125,28.4844 C4999.5313,28.4844 5000.6875,28.1875 5001.4375,27.6406 C5002.0156,27.2344 5002.3438,26.7813 5002.3438,26.3906 C5002.3438,25.9375 5001.9531,25.5469 5001.4844,25.5469 C5001.2656,25.5469 5001.0625,25.625 5000.875,25.8125 C5000.4219,26.2969 5000.4219,26.2969 5000.2344,26.3906 C4999.8125,26.6563 4999.125,26.7813 4998.3594,26.7813 C4996.3125,26.7813 4995.0156,25.6875 4995.0156,23.9844 L4995.0156,22.8906 C4995.0156,21.1094 4996.2656,19.7969 4998,19.7969 C4998.5781,19.7969 4999.1875,19.9531 4999.6563,20.2031 C5000.1406,20.4844 5000.3125,20.7031 5000.4063,21.1094 C5000.4688,21.5156 5000.5,21.6406 5000.6406,21.7656 C5000.7813,21.9063 5001.0156,22.0156 5001.2344,22.0156 C5001.5,22.0156 5001.7656,21.875 5001.9375,21.6563 C5002.0469,21.5 5002.0781,21.3125 5002.0781,20.8906 L5002.0781,19.4688 C5002.0781,19.0313 5002.0625,18.9063 5001.9688,18.75 C5001.8125,18.4844 5001.5313,18.3438 5001.2344,18.3438 C5000.9375,18.3438 5000.7344,18.4375 5000.5156,18.75 L5000.3438,18.6719 Z " fill="#000000"/><text fill="#000000" font-family="sans-serif" font-size="14" lengthAdjust="spacing" textLength="66" x="5012" y="27.8467">VueArcIG</text><line style="stroke:#00008B;stroke-width:0.5;" x1="4984" x2="5080" y1="39" y2="39"/><line style="stroke:#00008B;stroke-width:0.5;" x1="4984" x2="5080" y1="47" y2="47"/></g><!--MD5=[8f8c6014bff67980c8f7bec81a85516e]
reverse link EventHandler to EcouteurArcIg--><g id="link_EventHandler_EcouteurArcIg"><path d="M2871.27,66.911 C2850.35,81.893 2825.82,99.471 2804.23,114.933 " fill="none" id="EventHandler-backto-EcouteurArcIg" style="stroke:#2E8B57;stroke-width:1.0;stroke-dasharray:7.0,7.0;"/><polygon fill="none" points="2867.5,60.998,2887.84,55.041,2875.65,72.379,2867.5,60.998" style="stroke:#2E8B57;stroke-width:1.0;"/></g><!--MD5=[d9a47784ce1293708752f3285f02d238]
reverse link EventHandler to EcouteurBouton--><g id="link_EventHandler_EcouteurBouton"><path d="M2834.86,34.502 C2762.31,38.312 2655.85,47.901 2566,72 C2527.62,82.295 2486.99,99.173 2453.27,114.989 " fill="none" id="EventHandler-backto-EcouteurBouton" style="stroke:#2E8B57;stroke-width:1.0;stroke-dasharray:7.0,7.0;"/><polygon fill="none" points="2834.99,27.488,2855.3,33.534,2835.65,41.472,2834.99,27.488" style="stroke:#2E8B57;stroke-width:1.0;"/></g><!--MD5=[eceb83ef716f731fc09f1c07a3c8086d]
reverse link EventHandler to EcouteurDesselectionner--><g id="link_EventHandler_EcouteurDesselectionner"><path d="M2835.23,32.674 C2669.71,34.643 2309.18,42.308 2189,72 C2151.12,81.358 2111.45,98.635 2079.02,114.97 " fill="none" id="EventHandler-backto-EcouteurDesselectionner" style="stroke:#2E8B57;stroke-width:1.0;stroke-dasharray:7.0,7.0;"/><polygon fill="none" points="2835.29,25.673,2855.37,32.452,2835.45,39.673,2835.29,25.673" style="stroke:#2E8B57;stroke-width:1.0;"/></g><!--MD5=[76b1a9181d7b54100a59b77f1d2580cb]
reverse link EventHandler to EcouteurDragDepart--><g id="link_EventHandler_EcouteurDragDepart"><path d="M2835.21,32.984 C2595.83,36.059 1926.01,46.832 1830,72 C1795.54,81.035 1760.04,98.383 1731.26,114.849 " fill="none" id="EventHandler-backto-EcouteurDragDepart" style="stroke:#2E8B57;stroke-width:1.0;stroke-dasharray:7.0,7.0;"/><polygon fill="none" points="2835.26,25.982,2855.35,32.73,2835.44,39.981,2835.26,25.982" style="stroke:#2E8B57;stroke-width:1.0;"/></g><!--MD5=[7f74bd67ea9e0dd83f4c6a29710a517a]
reverse link EventHandler to EcouteurDragDessin--><g id="link_EventHandler_EcouteurDragDessin"><path d="M2835.05,32.978 C2550.39,36.453 1640.85,49.234 1511,72 C1459.57,81.018 1404.25,98.418 1358.76,114.923 " fill="none" id="EventHandler-backto-EcouteurDragDessin" style="stroke:#2E8B57;stroke-width:1.0;stroke-dasharray:7.0,7.0;"/><polygon fill="none" points="2835.14,25.976,2855.22,32.734,2835.31,39.975,2835.14,25.976" style="stroke:#2E8B57;stroke-width:1.0;"/></g><!--MD5=[3d26a4717fb1f30b0fcdbfee0e69073c]
reverse link EventHandler to EcouteurDragOver--><g id="link_EventHandler_EcouteurDragOver"><path d="M2835.11,32.85 C2423.49,37.047 652.706,55.999 598,72 C562.733,82.315 527.535,104.564 502.069,123.36 " fill="none" id="EventHandler-backto-EcouteurDragOver" style="stroke:#2E8B57;stroke-width:1.0;stroke-dasharray:7.0,7.0;"/><polygon fill="none" points="2835.27,25.848,2855.34,32.644,2835.41,39.847,2835.27,25.848" style="stroke:#2E8B57;stroke-width:1.0;"/></g><!--MD5=[c028ae91b25440ad4584bb8907f29254]
reverse link EventHandler to EcouteurEcartTemps--><g id="link_EventHandler_EcouteurEcartTemps"><path d="M2835.41,32.786 C2396.06,36.932 392.185,56.651 330,72 C294.588,80.741 258.099,98.277 228.646,114.942 " fill="none" id="EventHandler-backto-EcouteurEcartTemps" style="stroke:#2E8B57;stroke-width:1.0;stroke-dasharray:7.0,7.0;"/><polygon fill="none" points="2835.36,25.786,2855.43,32.598,2835.5,39.785,2835.36,25.786" style="stroke:#2E8B57;stroke-width:1.0;"/></g><!--MD5=[948a52a1cc2c36c7f3370253ed979dcc]
reverse link EventHandler to EcouteurEntree--><g id="link_EventHandler_EcouteurEntree"><path d="M3004.97,32.856 C3156.42,35.105 3466.9,43.19 3571,72 C3604.87,81.373 3639.82,98.546 3668.29,114.806 " fill="none" id="EventHandler-backto-EcouteurEntree" style="stroke:#2E8B57;stroke-width:1.0;stroke-dasharray:7.0,7.0;"/><polygon fill="none" points="3004.59,39.852,2984.69,32.576,3004.79,25.853,3004.59,39.852" style="stroke:#2E8B57;stroke-width:1.0;"/></g><!--MD5=[181646f664fcd895b58c40a304568c16]
reverse link EventHandler to EcouteurQuitter--><g id="link_EventHandler_EcouteurQuitter"><path d="M2968.7,66.687 C2989.81,81.717 3014.63,99.394 3036.44,114.933 " fill="none" id="EventHandler-backto-EcouteurQuitter" style="stroke:#2E8B57;stroke-width:1.0;stroke-dasharray:7.0,7.0;"/><polygon fill="none" points="2964.58,72.345,2952.35,55.041,2972.7,60.942,2964.58,72.345" style="stroke:#2E8B57;stroke-width:1.0;"/></g><!--MD5=[20f985d76c5c5016f0d34acb355933ec]
reverse link EventHandler to EcouteurRenommer--><g id="link_EventHandler_EcouteurRenommer"><path d="M3004.9,33.893 C3073.03,37.38 3170.43,46.833 3252,72 C3284.99,82.177 3319.26,99.039 3347.5,114.875 " fill="none" id="EventHandler-backto-EcouteurRenommer" style="stroke:#2E8B57;stroke-width:1.0;stroke-dasharray:7.0,7.0;"/><polygon fill="none" points="3004.42,40.878,2984.75,32.991,3005.04,26.892,3004.42,40.878" style="stroke:#2E8B57;stroke-width:1.0;"/></g><!--MD5=[91afc5c80ad1c22e95ffd88088d757f1]
reverse link EventHandler to EcouteurSelectArc--><g id="link_EventHandler_EcouteurSelectArc"><path d="M3004.71,33.302 C3370.9,38.988 4801.45,61.809 4847,72 C4886.29,80.792 4927.45,98.223 4960.94,114.806 " fill="none" id="EventHandler-backto-EcouteurSelectArc" style="stroke:#2E8B57;stroke-width:1.0;stroke-dasharray:7.0,7.0;"/><polygon fill="none" points="3004.49,40.3,2984.61,32.991,3004.71,26.301,3004.49,40.3" style="stroke:#2E8B57;stroke-width:1.0;"/></g><!--MD5=[c53320b8be7dad658c1b71af232d5378]
reverse link EventHandler to EcouteurSelectEtape--><g id="link_EventHandler_EcouteurSelectEtape"><path d="M2835.35,31.996 C2489.28,32.224 1191.84,35.525 1012,72 C968.588,80.805 922.6,98.237 885.024,114.819 " fill="none" id="EventHandler-backto-EcouteurSelectEtape" style="stroke:#2E8B57;stroke-width:1.0;stroke-dasharray:7.0,7.0;"/><polygon fill="none" points="2835.35,24.997,2855.35,31.986,2835.36,38.997,2835.35,24.997" style="stroke:#2E8B57;stroke-width:1.0;"/></g><!--MD5=[947246acc4b59e8217d4689f08a78558]
reverse link EventHandler to EcouteurSortie--><g id="link_EventHandler_EcouteurSortie"><path d="M3005,33.054 C3326.51,37.176 4453.86,52.929 4528,72 C4562.49,80.87 4597.93,98.309 4626.58,114.878 " fill="none" id="EventHandler-backto-EcouteurSortie" style="stroke:#2E8B57;stroke-width:1.0;stroke-dasharray:7.0,7.0;"/><polygon fill="none" points="3004.48,40.048,2984.57,32.793,3004.66,26.049,3004.48,40.048" style="stroke:#2E8B57;stroke-width:1.0;"/></g><!--MD5=[28dbd6669447abcd4d8ff092fd36d096]
reverse link EventHandler to EcouteurSupprimer--><g id="link_EventHandler_EcouteurSupprimer"><path d="M3004.93,32.449 C3273.48,34.171 4093.32,41.866 4209,72 C4243.46,80.976 4278.9,98.426 4307.55,114.975 " fill="none" id="EventHandler-backto-EcouteurSupprimer" style="stroke:#2E8B57;stroke-width:1.0;stroke-dasharray:7.0,7.0;"/><polygon fill="none" points="3004.68,39.447,2984.72,32.324,3004.77,25.448,3004.68,39.447" style="stroke:#2E8B57;stroke-width:1.0;"/></g><!--MD5=[74726cf17b8bb1cbd24f43f75dc0f1c1]
reverse link EventHandler to EcouteurTemps--><g id="link_EventHandler_EcouteurTemps"><path d="M3005.07,33.395 C3225.85,37.315 3805.88,49.628 3890,72 C3924.26,81.111 3959.54,98.468 3988.13,114.92 " fill="none" id="EventHandler-backto-EcouteurTemps" style="stroke:#2E8B57;stroke-width:1.0;stroke-dasharray:7.0,7.0;"/><polygon fill="none" points="3004.73,40.39,2984.85,33.042,3004.97,26.392,3004.73,40.39" style="stroke:#2E8B57;stroke-width:1.0;"/></g><!--MD5=[d5a0159c5d499262d4e87e62c234eeea]
reverse link EventHandler to EcouteurVuePointDeControles--><g id="link_EventHandler_EcouteurVuePointDeControles"><path d="M3004.66,33.393 C3417.92,40.204 5204.07,69.757 5218,72 C5272.59,80.788 5331.48,98.273 5379.86,114.894 " fill="none" id="EventHandler-backto-EcouteurVuePointDeControles" style="stroke:#2E8B57;stroke-width:1.0;stroke-dasharray:7.0,7.0;"/><polygon fill="none" points="3004.52,40.392,2984.64,33.063,3004.76,26.394,3004.52,40.392" style="stroke:#2E8B57;stroke-width:1.0;"/></g><!--MD5=[32bcd22437c05c8de5afd29898060d33]
link MondeIG to EcouteurVuePointDeControles--><g id="link_MondeIG_EcouteurVuePointDeControles"><path codeLine="83" d="M4415.71,33.909 C4589.17,40.892 5178.33,65.01 5218,72 C5271.74,81.47 5329.8,98.706 5377.83,114.985 " fill="none" id="MondeIG-EcouteurVuePointDeControles" style="stroke:#2E8B57;stroke-width:1.0;"/><text fill="#000000" font-family="sans-serif" font-size="13" lengthAdjust="spacing" textLength="8" x="4423.6281" y="30.2831">1</text></g><!--MD5=[f8bda045793e90f812f6a3130c963804]
link PointDeControleIG to EcouteurVuePointDeControles--><g id="link_PointDeControleIG_EcouteurVuePointDeControles"><path codeLine="84" d="M5483,55.041 C5483,71.814 5483,94.95 5483,114.688 " fill="none" id="PointDeControleIG-EcouteurVuePointDeControles" style="stroke:#2E8B57;stroke-width:1.0;"/><text fill="#000000" font-family="sans-serif" font-size="13" lengthAdjust="spacing" textLength="8" x="5473.975" y="75.2073">1</text></g><!--MD5=[0779abb9592d7c75f935438a2217cadd]
link MondeIG to EcouteurTemps--><g id="link_MondeIG_EcouteurTemps"><path codeLine="85" d="M4320.17,41.033 C4288.14,47.807 4245.35,58.267 4209,72 C4177.86,83.765 4144.94,100.019 4117.11,114.991 " fill="none" id="MondeIG-EcouteurTemps" style="stroke:#2E8B57;stroke-width:1.0;"/><text fill="#000000" font-family="sans-serif" font-size="13" lengthAdjust="spacing" textLength="8" x="4304.5575" y="55.6848">1</text></g><!--MD5=[9b2f2d921bb3eefae53c4e08051a3857]
link MondeIG to EcouteurSupprimer--><g id="link_MondeIG_EcouteurSupprimer"><path codeLine="86" d="M4368,55.041 C4368,71.814 4368,94.95 4368,114.688 " fill="none" id="MondeIG-EcouteurSupprimer" style="stroke:#2E8B57;stroke-width:1.0;"/><text fill="#000000" font-family="sans-serif" font-size="13" lengthAdjust="spacing" textLength="8" x="4358.975" y="75.2073">1</text></g><!--MD5=[04fb38d66ee1c0438e16889fe2088e55]
link MondeIG to EcouteurSortie--><g id="link_MondeIG_EcouteurSortie"><path codeLine="87" d="M4415.79,40.893 C4448.07,47.636 4491.31,58.115 4528,72 C4558.98,83.723 4591.7,99.971 4619.35,114.949 " fill="none" id="MondeIG-EcouteurSortie" style="stroke:#2E8B57;stroke-width:1.0;"/><text fill="#000000" font-family="sans-serif" font-size="13" lengthAdjust="spacing" textLength="8" x="4423.3967" y="55.5242">1</text></g><!--MD5=[fb3a8cc32180eb650005ac42f48439bd]
link MondeIG to EcouteurSimulation--><g id="link_MondeIG_EcouteurSimulation"><path codeLine="88" d="M4415.66,34.103 C4516.96,38.514 4761.16,48.832 4966,55 C5009.38,56.306 5706.14,57.369 5747,72 C5780.61,84.036 5811.78,111.446 5831.28,131.3778 " fill="none" id="MondeIG-EcouteurSimulation" style="stroke:#2E8B57;stroke-width:1.0;"/><text fill="#000000" font-family="sans-serif" font-size="13" lengthAdjust="spacing" textLength="8" x="4423.5704" y="30.5068">1</text></g><!--MD5=[65fd3d1507f1bf80497020ec8b75ddd2]
link MondeIG to EcouteurRenommer--><g id="link_MondeIG_EcouteurRenommer"><path codeLine="89" d="M4320.42,31.759 C4171.14,31.415 3713.55,33.603 3571,72 C3536.75,81.226 3501.42,98.488 3472.7,114.846 " fill="none" id="MondeIG-EcouteurRenommer" style="stroke:#2E8B57;stroke-width:1.0;"/><text fill="#000000" font-family="sans-serif" font-size="13" lengthAdjust="spacing" textLength="8" x="4304.5218" y="45.1007">1</text></g><!--MD5=[8dd0fc5d7271314735871127f4560059]
link MondeIG to EcouteurEntree--><g id="link_MondeIG_EcouteurEntree"><path codeLine="90" d="M4320.49,33.618 C4216.15,37.554 3969.94,49.033 3890,72 C3856.21,81.709 3821.22,98.817 3792.61,114.946 " fill="none" id="MondeIG-EcouteurEntree" style="stroke:#2E8B57;stroke-width:1.0;"/><text fill="#000000" font-family="sans-serif" font-size="13" lengthAdjust="spacing" textLength="8" x="4304.6025" y="29.9475">1</text></g><!--MD5=[9f022876355046089c8374bcd41ab604]
link MondeIG to EcouteurSelectEtape--><g id="link_MondeIG_EcouteurSelectEtape"><path codeLine="91" d="M4320.21,32.948 C4144.62,36.401 3518.43,48.447 3002,55 C2891.45,56.403 1120.49,50.697 1012,72 C968.344,80.573 922.138,98.091 884.483,114.789 " fill="none" id="MondeIG-EcouteurSelectEtape" style="stroke:#2E8B57;stroke-width:1.0;"/><text fill="#000000" font-family="sans-serif" font-size="13" lengthAdjust="spacing" textLength="8" x="4304.6033" y="29.2092">1</text></g><!--MD5=[eda20e0790bc5202451117a23fe9adaa]
link VueEtapeIG to EcouteurSelectEtape--><g id="link_VueEtapeIG_EcouteurSelectEtape"><path codeLine="92" d="M805,55.041 C805,71.814 805,94.95 805,114.688 " fill="none" id="VueEtapeIG-EcouteurSelectEtape" style="stroke:#2E8B57;stroke-width:1.0;"/><text fill="#000000" font-family="sans-serif" font-size="13" lengthAdjust="spacing" textLength="8" x="795.975" y="75.2073">1</text></g><!--MD5=[af3ca125d707c2f5239561bbdfb604d7]
link MondeIG to EcouteurSelectArc--><g id="link_MondeIG_EcouteurSelectArc"><path codeLine="93" d="M4415.52,33.942 C4519.9,38.536 4766.27,51.267 4847,72 C4885.15,81.798 4925.33,98.813 4958.46,114.856 " fill="none" id="MondeIG-EcouteurSelectArc" style="stroke:#2E8B57;stroke-width:1.0;"/><text fill="#000000" font-family="sans-serif" font-size="13" lengthAdjust="spacing" textLength="8" x="4423.409" y="47.618">1</text></g><!--MD5=[c078c97ff1ac257a1efa713c097a0a2e]
link VueArcIG to EcouteurSelectArc--><g id="link_VueArcIG_EcouteurSelectArc"><path codeLine="94" d="M5032,55.041 C5032,71.814 5032,94.95 5032,114.688 " fill="none" id="VueArcIG-EcouteurSelectArc" style="stroke:#2E8B57;stroke-width:1.0;"/><text fill="#000000" font-family="sans-serif" font-size="13" lengthAdjust="spacing" textLength="8" x="5022.975" y="75.2073">1</text></g><!--MD5=[ac4bc537399b9538baac6d965d97b8d6]
@startuml
skinparam class {
	BackgroundColor DeepSkyBlue
	ArrowColor SeaGreen
	BorderColor DarkBlue
}
skinparam stereotypeCBackgroundColor YellowGreen

Interface EventHandler{}
package twisk.ecouteurs {
class EcouteurArcIg implements EventHandler{
    EcouteurArcIg(MondeIG monde , ArcIG arcIG)
    void handle(MouseEvent MouseEvent)
}

class EcouteurBouton implements EventHandler{
     EcouteurBouton(MondeIG monde,String type)
     void handle(ActionEvent actionEvent) 
}


class EcouteurDesselectionner implements EventHandler{
     EcouteurDesselectionner(MondeIG  monde)
     void handle(ActionEvent actionEvent) 
}

class EcouteurDragDepart implements EventHandler{
EcouteurDragDepart(VueEtapeIG e)
void handle(ActionEvent actionEvent) 
}
class EcouteurDragDessin implements EventHandler{
public EcouteurDragDessin(MondeIG monde , VueMondeIG vue)
void handle(ActionEvent actionEvent) 
}

class EcouteurDragOver implements EventHandler{
void handle(DragEvent dragev)
}
class EcouteurEcartTemps implements EventHandler{
EcouteurEcartTemps(MondeIG monde)
void handle(ActionEvent actionEvent) 
}
class EcouteurEntree implements EventHandler{
EcouteurEntree(MondeIG monde)
void handle(ActionEvent actionEvent) 
}
class EcouteurQuitter implements EventHandler{
 EcouteurQuitter()
void handle(ActionEvent actionEvent) 
}
class EcouteurRenommer implements EventHandler{
EcouteurRenommer(MondeIG monde)
void handle(ActionEvent actionEvent) 
}
class EcouteurSelectArc implements EventHandler{
EcouteurSelectArc(VueArcIG vue,MondeIG m)
void handle(MouseEvent mouseevent)
}
class EcouteurSelectEtape implements EventHandler{
EcouteurSelectEtape(VueEtapeIG vue, MondeIG m)
void handle(MouseEvent mouseevent)
}

class EcouteurSortie implements EventHandler{
EcouteurSortie(MondeIG monde)
void handle(ActionEvent actionEvent) 
}

class EcouteurSupprimer implements EventHandler{
EcouteurSupprimer(MondeIG monde)
void handle(ActionEvent actionEvent) 
}

class EcouteurTemps implements EventHandler{
EcouteurTemps(MondeIG monde)
void handle(ActionEvent actionEvent) 
}
class EcouteurVuePointDeControles implements EventHandler{
EcouteurVuePointDeControles(MondeIG md, PointDeControleIG pt)
void handle(MouseEvent mousesnvent )
}
}

EcouteurVuePointDeControles -up- "1" MondeIG
EcouteurVuePointDeControles -up- "1" PointDeControleIG
EcouteurTemps -up- "1" MondeIG
EcouteurSupprimer -up- "1" MondeIG
EcouteurSortie -up- "1" MondeIG
EcouteurSimulation -up- "1" MondeIG
EcouteurRenommer -up- "1" MondeIG
EcouteurEntree -up- "1" MondeIG
EcouteurSelectEtape -up- "1" MondeIG
EcouteurSelectEtape -up- "1" VueEtapeIG
EcouteurSelectArc -up- "1" MondeIG
EcouteurSelectArc -up- "1" VueArcIG
@enduml

PlantUML version 1.2022.6beta5(Unknown compile time)
(GPL source distribution)
Java Runtime: Java(TM) SE Runtime Environment
JVM: Java HotSpot(TM) 64-Bit Server VM
Default Encoding: UTF-8
Language: en
Country: US
--></g></svg>